<?xml version="1.0" encoding="UTF-8" standalone="no"?>
<!-- Created with Inkscape (http://www.inkscape.org/) -->

<svg
   xmlns:dc="http://purl.org/dc/elements/1.1/"
   xmlns:cc="http://creativecommons.org/ns#"
   xmlns:rdf="http://www.w3.org/1999/02/22-rdf-syntax-ns#"
   xmlns:svg="http://www.w3.org/2000/svg"
   xmlns="http://www.w3.org/2000/svg"
   xmlns:sodipodi="http://sodipodi.sourceforge.net/DTD/sodipodi-0.dtd"
   xmlns:inkscape="http://www.inkscape.org/namespaces/inkscape"
   width="210mm"
   height="297mm"
   viewBox="0 0 744.09448819 1052.3622047"
   id="svg2"
   version="1.1"
   inkscape:version="0.91 r13725"
   sodipodi:docname="Arrow.svg">
  <defs
     id="defs4" />
  <sodipodi:namedview
     id="base"
     pagecolor="#ffffff"
     bordercolor="#666666"
     borderopacity="1.0"
     inkscape:pageopacity="0.0"
     inkscape:pageshadow="2"
     inkscape:zoom="0.7"
     inkscape:cx="179.10995"
     inkscape:cy="489.9675"
     inkscape:document-units="px"
     inkscape:current-layer="layer1"
     showgrid="false"
     inkscape:window-width="1366"
     inkscape:window-height="705"
     inkscape:window-x="-8"
     inkscape:window-y="-8"
     inkscape:window-maximized="1" />
  <metadata
     id="metadata7">
    <rdf:RDF>
      <cc:Work
         rdf:about="">
        <dc:format>image/svg+xml</dc:format>
        <dc:type
           rdf:resource="http://purl.org/dc/dcmitype/StillImage" />
        <dc:title></dc:title>
      </cc:Work>
    </rdf:RDF>
  </metadata>
  <g
     inkscape:label="Layer 1"
     inkscape:groupmode="layer"
     id="layer1">
    <path
       style="fill:none;fill-rule:evenodd;stroke:#000000;stroke-width:1.5;stroke-linecap:butt;stroke-linejoin:round;stroke-miterlimit:4;stroke-dasharray:none;stroke-opacity:1"
       d="m 655.589,400.81381 -185.21505,-182.65904 -9.65244,-3.3314 -13.21666,-1.16652 -11.85672,2.91979 -11.38406,6.45032 -6.59527,10.04475 -4.0662,11.75506 1.04899,13.24773 4.56172,11.41948 145.46196,144.45182 -302.15965,0 -5.71975,2.07597 -5.91328,3.82479 -4.45276,3.02868 -4.9544,4.92937 -3.66237,5.66906 -2.49886,6.37932 -2.09301,12.4786 2.21411,12.85858 4.59913,9.19443 9.01831,8.42435 11.44257,3.86783 301.14951,3.03046 -144.45182,146.47212 -2.26333,5.24047 -1.39379,6.7859 0.6507,11.68648 2.64234,9.99572 5.11898,9.28156 11.41603,7.60157 11.29896,3.55688 11.1789,0.11238 11.85884,-2.74318 213.14219,-211.12189 7.09688,-11.35288 1.99448,-9.35525 -0.89628,-12.83443 -7.68639,-13.60638 z"
       id="path4155"
       inkscape:connector-curvature="0"
       sodipodi:nodetypes="cccccccccccccccccccccccccccccccccccccccc"
       inkscape:export-xdpi="90"
       inkscape:export-ydpi="90"
       inkscape:export-filename="C:\Users\Maciej\path4155.png" />
  </g>
</svg>
