<?xml version="1.0" encoding="UTF-8" standalone="no"?>
<!-- Created with Inkscape (http://www.inkscape.org/) -->

<svg
   xmlns:dc="http://purl.org/dc/elements/1.1/"
   xmlns:cc="http://creativecommons.org/ns#"
   xmlns:rdf="http://www.w3.org/1999/02/22-rdf-syntax-ns#"
   xmlns:svg="http://www.w3.org/2000/svg"
   xmlns="http://www.w3.org/2000/svg"
   xmlns:sodipodi="http://sodipodi.sourceforge.net/DTD/sodipodi-0.dtd"
   xmlns:inkscape="http://www.inkscape.org/namespaces/inkscape"
   width="210mm"
   height="297mm"
   viewBox="0 0 744.09448819 1052.3622047"
   id="svg2"
   version="1.1"
   inkscape:version="0.91 r13725"
   sodipodi:docname="Arrow_rotation.svg">
  <defs
     id="defs4" />
  <sodipodi:namedview
     id="base"
     pagecolor="#ffffff"
     bordercolor="#666666"
     borderopacity="1.0"
     inkscape:pageopacity="0.0"
     inkscape:pageshadow="2"
     inkscape:zoom="1.4"
     inkscape:cx="150.3635"
     inkscape:cy="671.1958"
     inkscape:document-units="px"
     inkscape:current-layer="layer1"
     showgrid="false"
     inkscape:window-width="1366"
     inkscape:window-height="705"
     inkscape:window-x="-8"
     inkscape:window-y="-8"
     inkscape:window-maximized="1" />
  <metadata
     id="metadata7">
    <rdf:RDF>
      <cc:Work
         rdf:about="">
        <dc:format>image/svg+xml</dc:format>
        <dc:type
           rdf:resource="http://purl.org/dc/dcmitype/StillImage" />
        <dc:title></dc:title>
      </cc:Work>
    </rdf:RDF>
  </metadata>
  <g
     inkscape:label="Layer 1"
     inkscape:groupmode="layer"
     id="layer1">
    <path
       style="fill:none;fill-rule:evenodd;stroke:#000000;stroke-width:1px;stroke-linecap:butt;stroke-linejoin:round;stroke-opacity:1"
       d="m 382.34274,301.06125 c -21.45268,-10.8199 -39.91126,-12.48546 -59.34646,-11.36422 0.24829,-10.78557 2.90984,-15.53801 5.80838,-19.69797 -8.62347,-5.68899 -20.97571,-6.15771 -32.82996,-7.32361 -76.90071,11.60178 -75.23568,49.39214 -88.89343,82.0749 -12.57895,13.11554 -17.00704,3.40871 -23.23351,-1.26269 3.83943,-30.44871 9.98969,-50.39019 44.19418,-81.82236 6.64753,-4.80074 39.1786,-34.55365 110.10663,-15.40483 2.68098,-6.69524 3.47965,-15.90023 9.84898,-17.67767 16.09834,15.96464 35.40804,27.03901 34.34519,72.47845 z"
       id="path4149"
       inkscape:connector-curvature="0"
       sodipodi:nodetypes="cccccccccc"
       inkscape:export-filename="C:\Users\Maciej\path4149-1.png"
       inkscape:export-xdpi="203.97244"
       inkscape:export-ydpi="203.97244" />
    <path
       style="fill:none;fill-rule:evenodd;stroke:#000000;stroke-width:1px;stroke-linecap:butt;stroke-linejoin:round;stroke-opacity:1"
       d="m 191.2925,380.79681 c 21.45268,10.8199 39.91126,12.48546 59.34646,11.36422 -0.24829,10.78557 -2.90984,15.53801 -5.80838,19.69797 8.62347,5.68899 20.97571,6.15771 32.82996,7.32361 76.90071,-11.60178 75.23568,-49.39214 88.89343,-82.0749 12.57895,-13.11554 17.00704,-3.40871 23.23351,1.26269 -3.83943,30.44871 -9.98969,50.39019 -44.19418,81.82236 -6.64753,4.80074 -39.1786,34.55365 -110.10663,15.40483 -2.68098,6.69524 -3.47965,15.90023 -9.84898,17.67767 -16.09834,-15.96464 -35.40804,-27.03901 -34.34519,-72.47845 z"
       id="path4149-1"
       inkscape:connector-curvature="0"
       sodipodi:nodetypes="cccccccccc"
       inkscape:export-filename="C:\Users\Maciej\path4149-1.png"
       inkscape:export-xdpi="203.97244"
       inkscape:export-ydpi="203.97244" />
  </g>
</svg>
