<?xml version="1.0" encoding="UTF-8" standalone="no"?>
<!-- Created with Inkscape (http://www.inkscape.org/) -->

<svg
   xmlns:dc="http://purl.org/dc/elements/1.1/"
   xmlns:cc="http://creativecommons.org/ns#"
   xmlns:rdf="http://www.w3.org/1999/02/22-rdf-syntax-ns#"
   xmlns:svg="http://www.w3.org/2000/svg"
   xmlns="http://www.w3.org/2000/svg"
   xmlns:sodipodi="http://sodipodi.sourceforge.net/DTD/sodipodi-0.dtd"
   xmlns:inkscape="http://www.inkscape.org/namespaces/inkscape"
   width="210mm"
   height="297mm"
   viewBox="0 0 744.09448819 1052.3622047"
   id="svg2"
   version="1.1"
   inkscape:version="0.91 r13725"
   sodipodi:docname="List (button).svg">
  <defs
     id="defs4" />
  <sodipodi:namedview
     id="base"
     pagecolor="#ffffff"
     bordercolor="#666666"
     borderopacity="1.0"
     inkscape:pageopacity="0.0"
     inkscape:pageshadow="2"
     inkscape:zoom="0.98994949"
     inkscape:cx="344.93872"
     inkscape:cy="730.76427"
     inkscape:document-units="px"
     inkscape:current-layer="layer1"
     showgrid="false"
     inkscape:window-width="1366"
     inkscape:window-height="705"
     inkscape:window-x="-8"
     inkscape:window-y="-8"
     inkscape:window-maximized="1" />
  <metadata
     id="metadata7">
    <rdf:RDF>
      <cc:Work
         rdf:about="">
        <dc:format>image/svg+xml</dc:format>
        <dc:type
           rdf:resource="http://purl.org/dc/dcmitype/StillImage" />
        <dc:title></dc:title>
      </cc:Work>
    </rdf:RDF>
  </metadata>
  <g
     inkscape:label="Layer 1"
     inkscape:groupmode="layer"
     id="layer1">
    <path
       style="fill:none;fill-rule:evenodd;stroke:#000000;stroke-width:4.3;stroke-linecap:butt;stroke-linejoin:round;stroke-opacity:1;stroke-miterlimit:4;stroke-dasharray:none"
       d="m 255,523.07649 1.78571,0 204.09639,0 c 4.66957,-0.67229 10.37406,-1.0356 13.50078,-3.84672 2.97183,-2.58703 3.56434,-6.89426 3.47426,-12.60248 l 0,-238.37223 c -0.27789,-5.18305 -0.88764,-10.06442 -3.75,-12.89796 -2.95928,-3.06952 -7.65945,-2.65727 -11.96428,-3.03571 l -210.86741,0 c -3.49424,0.0964 -6.66176,0.56043 -8.27063,2.77792 -1.46894,1.16587 -1.77653,4.65442 -2.08344,8.14435 l 0,244.56497 c 0.61061,3.97977 -0.54128,8.15538 4.01786,11.69643 1.95879,1.67954 4.88934,3.4982 10.68576,3.57143"
       id="path3369"
       inkscape:connector-curvature="0"
       sodipodi:nodetypes="cccccccccccccc"
       inkscape:export-filename="C:\Users\Maciej\Desktop\path4215-7.png"
       inkscape:export-xdpi="167.50624"
       inkscape:export-ydpi="167.50624" />
    <path
       style="fill:#000000;fill-rule:evenodd;stroke:#000000;stroke-width:1px;stroke-linecap:butt;stroke-linejoin:miter;stroke-opacity:1;fill-opacity:1"
       d="m 450.53572,457.00506 -137.85715,0 0,10.53571 137.85715,0 z"
       id="path3371"
       inkscape:connector-curvature="0"
       inkscape:export-filename="C:\Users\Maciej\Desktop\path4215-7.png"
       inkscape:export-xdpi="167.50624"
       inkscape:export-ydpi="167.50624" />
    <path
       style="fill:#000000;fill-opacity:1;fill-rule:evenodd;stroke:#000000;stroke-width:1px;stroke-linecap:butt;stroke-linejoin:miter;stroke-opacity:1"
       d="m 450.00862,406.65763 -137.85715,0 0,10.53571 137.85715,0 z"
       id="path3371-7"
       inkscape:connector-curvature="0"
       inkscape:export-filename="C:\Users\Maciej\Desktop\path4215-7.png"
       inkscape:export-xdpi="167.50624"
       inkscape:export-ydpi="167.50624" />
    <path
       style="fill:#000000;fill-opacity:1;fill-rule:evenodd;stroke:#000000;stroke-width:1px;stroke-linecap:butt;stroke-linejoin:miter;stroke-opacity:1"
       d="m 450.26117,356.40255 -137.85715,0 0,10.53571 137.85715,0 z"
       id="path3371-1"
       inkscape:connector-curvature="0"
       inkscape:export-filename="C:\Users\Maciej\Desktop\path4215-7.png"
       inkscape:export-xdpi="167.50624"
       inkscape:export-ydpi="167.50624" />
    <path
       style="fill:#000000;fill-opacity:1;fill-rule:evenodd;stroke:#000000;stroke-width:1px;stroke-linecap:butt;stroke-linejoin:miter;stroke-opacity:1"
       d="m 450.00862,305.64238 -137.85715,0 0,10.53571 137.85715,0 z"
       id="path3371-4"
       inkscape:connector-curvature="0"
       inkscape:export-filename="C:\Users\Maciej\Desktop\path4215-7.png"
       inkscape:export-xdpi="167.50624"
       inkscape:export-ydpi="167.50624" />
    <path
       style="fill:#000000;fill-rule:evenodd;stroke:#000000;stroke-width:1px;stroke-linecap:butt;stroke-linejoin:miter;stroke-opacity:1;fill-opacity:1"
       d="m 298.78697,446.53481 c 0.86847,1.13925 1.42268,2.57537 1.60714,4.17561 l 0,22.64497 c 0.0194,1.57813 0.28877,3.21452 -1.42053,4.54569 -0.76751,0.68953 -1.77159,1.90791 -3.63023,2.33598 l -25.09598,0 c -1.12763,-0.46435 -2.51488,-0.81807 -3.31456,-2.02031 -1.47409,-2.26843 -1.71214,-2.93198 -1.89404,-3.63024 l 0,-24.59038 c 0.68484,-3.17627 2.45536,-4.25723 2.45536,-4.25723 0.72534,-0.99654 2.42511,-1.42926 5.40777,-1.71297 l 22.27714,0.0796 c 1.35413,0.0261 1.87066,0.91254 3.60793,2.42934 z"
       id="path4215"
       inkscape:connector-curvature="0"
       sodipodi:nodetypes="cccccccccccccc"
       inkscape:export-filename="C:\Users\Maciej\Desktop\path4215-7.png"
       inkscape:export-xdpi="167.50624"
       inkscape:export-ydpi="167.50624" />
    <path
       style="fill:#000000;fill-opacity:1;fill-rule:evenodd;stroke:#000000;stroke-width:1px;stroke-linecap:butt;stroke-linejoin:miter;stroke-opacity:1"
       d="m 298.64639,396.58139 c 0.86847,1.13925 1.42268,2.57537 1.60714,4.17561 l 0,22.64497 c 0.0194,1.57813 0.28877,3.21452 -1.42053,4.54569 -0.76751,0.68953 -1.77159,1.90791 -3.63023,2.33598 l -25.09598,0 c -1.12763,-0.46435 -2.51488,-0.81807 -3.31456,-2.02031 -1.47409,-2.26843 -1.71214,-2.93198 -1.89404,-3.63024 l 0,-24.59038 c 0.68484,-3.17627 2.45536,-4.25723 2.45536,-4.25723 0.72534,-0.99654 2.42511,-1.42926 5.40777,-1.71297 l 22.27714,0.0796 c 1.35413,0.0261 1.87066,0.91254 3.60793,2.42934 z"
       id="path4215-1"
       inkscape:connector-curvature="0"
       sodipodi:nodetypes="cccccccccccccc"
       inkscape:export-filename="C:\Users\Maciej\Desktop\path4215-7.png"
       inkscape:export-xdpi="167.50624"
       inkscape:export-ydpi="167.50624" />
    <path
       style="fill:#000000;fill-opacity:1;fill-rule:evenodd;stroke:#000000;stroke-width:1px;stroke-linecap:butt;stroke-linejoin:miter;stroke-opacity:1"
       d="m 298.64638,345.31614 c 0.86847,1.13925 1.42268,2.57537 1.60714,4.17561 l 0,22.64497 c 0.0194,1.57813 0.28877,3.21452 -1.42053,4.54569 -0.76751,0.68953 -1.77159,1.90791 -3.63023,2.33598 l -25.09598,0 c -1.12763,-0.46435 -2.51488,-0.81807 -3.31456,-2.02031 -1.47409,-2.26843 -1.71214,-2.93198 -1.89404,-3.63024 l 0,-24.59038 c 0.68484,-3.17627 2.45536,-4.25723 2.45536,-4.25723 0.72534,-0.99654 2.42511,-1.42926 5.40777,-1.71297 l 22.27714,0.0796 c 1.35413,0.0261 1.87066,0.91254 3.60793,2.42934 z"
       id="path4215-15"
       inkscape:connector-curvature="0"
       sodipodi:nodetypes="cccccccccccccc"
       inkscape:export-filename="C:\Users\Maciej\Desktop\path4215-7.png"
       inkscape:export-xdpi="167.50624"
       inkscape:export-ydpi="167.50624" />
    <path
       style="fill:#000000;fill-opacity:1;fill-rule:evenodd;stroke:#000000;stroke-width:1px;stroke-linecap:butt;stroke-linejoin:miter;stroke-opacity:1"
       d="m 298.89892,295.06105 c 0.86847,1.13925 1.42268,2.57537 1.60714,4.17561 l 0,22.64497 c 0.0194,1.57813 0.28877,3.21452 -1.42053,4.54569 -0.76751,0.68953 -1.77159,1.90791 -3.63023,2.33598 l -25.09598,0 c -1.12763,-0.46435 -2.51488,-0.81807 -3.31456,-2.02031 -1.47409,-2.26843 -1.71214,-2.93198 -1.89404,-3.63024 l 0,-24.59038 c 0.68484,-3.17627 2.45536,-4.25723 2.45536,-4.25723 0.72534,-0.99654 2.42511,-1.42926 5.40777,-1.71297 l 22.27714,0.0796 c 1.35413,0.0261 1.87066,0.91254 3.60793,2.42934 z"
       id="path4215-7"
       inkscape:connector-curvature="0"
       sodipodi:nodetypes="cccccccccccccc"
       inkscape:export-filename="C:\Users\Maciej\Desktop\path4215-7.png"
       inkscape:export-xdpi="167.50624"
       inkscape:export-ydpi="167.50624" />
  </g>
</svg>
