<?xml version="1.0" encoding="UTF-8" standalone="no"?>
<!-- Created with Inkscape (http://www.inkscape.org/) -->

<svg
   xmlns:dc="http://purl.org/dc/elements/1.1/"
   xmlns:cc="http://creativecommons.org/ns#"
   xmlns:rdf="http://www.w3.org/1999/02/22-rdf-syntax-ns#"
   xmlns:svg="http://www.w3.org/2000/svg"
   xmlns="http://www.w3.org/2000/svg"
   xmlns:sodipodi="http://sodipodi.sourceforge.net/DTD/sodipodi-0.dtd"
   xmlns:inkscape="http://www.inkscape.org/namespaces/inkscape"
   width="210mm"
   height="297mm"
   viewBox="0 0 744.09448819 1052.3622047"
   id="svg2"
   version="1.1"
   inkscape:version="0.91 r13725"
   sodipodi:docname="Save (button).svg"
   inkscape:export-filename="C:\Users\Maciej\Desktop\Save (button).png"
   inkscape:export-xdpi="66.222847"
   inkscape:export-ydpi="66.222847">
  <defs
     id="defs4" />
  <sodipodi:namedview
     id="base"
     pagecolor="#ffffff"
     bordercolor="#666666"
     borderopacity="1.0"
     inkscape:pageopacity="0.0"
     inkscape:pageshadow="2"
     inkscape:zoom="0.35"
     inkscape:cx="153.90052"
     inkscape:cy="584.86754"
     inkscape:document-units="px"
     inkscape:current-layer="layer1"
     showgrid="false"
     inkscape:window-width="1366"
     inkscape:window-height="705"
     inkscape:window-x="-8"
     inkscape:window-y="-8"
     inkscape:window-maximized="1" />
  <metadata
     id="metadata7">
    <rdf:RDF>
      <cc:Work
         rdf:about="">
        <dc:format>image/svg+xml</dc:format>
        <dc:type
           rdf:resource="http://purl.org/dc/dcmitype/StillImage" />
        <dc:title />
      </cc:Work>
    </rdf:RDF>
  </metadata>
  <g
     inkscape:label="Layer 1"
     inkscape:groupmode="layer"
     id="layer1">
    <path
       style="fill:none;fill-rule:evenodd;stroke:#000000;stroke-width:1px;stroke-linecap:butt;stroke-linejoin:miter;stroke-opacity:1"
       d="m 621.24381,777.34818 c 5.33431,-8.00591 6.36779,-14.783 7.07107,-21.46575 l 0,-259.10413 c -0.40481,-23.94574 -4.93564,-21.72047 -8.08122,-26.5165 -9.61738,-8.57885 -16.47517,-7.03922 -24.24366,-8.83883 l -476.53946,0 c -7.91629,0.61419 -16.49571,2.71097 -23.738586,7.57614 -6.029572,3.12027 -7.493321,14.35627 -8.838835,25.50635 l 0,265.67012 c 0.852329,6.87903 1.259836,13.86927 7.323606,19.44544 4.852522,2.51114 9.360015,5.09896 26.009425,4.98857 l 486.64354,-0.90791 c 4.79804,-1.30037 9.59608,-0.7035 14.39412,-6.3535 z"
       id="path3347"
       inkscape:connector-curvature="0"
       sodipodi:nodetypes="ccccccccccccc" />
    <path
       style="fill:none;fill-rule:evenodd;stroke:#000000;stroke-width:1px;stroke-linecap:butt;stroke-linejoin:miter;stroke-opacity:1"
       d="m 492.85714,175.21935 -81.42857,0 0,182.85714 81.58702,0 z"
       id="path3349"
       inkscape:connector-curvature="0"
       sodipodi:nodetypes="ccccc" />
    <path
       style="fill:none;fill-rule:evenodd;stroke:#000000;stroke-width:1px;stroke-linecap:butt;stroke-linejoin:miter;stroke-opacity:1"
       d="m 32.542918,788.85244 c 16.032831,13.18537 33.758742,23.71019 59.128426,22.22336 l 542.568306,0.35714 c 16.29336,1.06649 43.8059,-16.96924 53.98246,-28.89395 7.96516,-13.1184 17.03602,-26.16514 16.92006,-43.32407 l 0,-486.13843 -135.07109,-135.07108 -479.178223,0 c -24.982792,1.05155 -38.431753,12.71422 -51.785714,24.46429 -9.843325,9.07584 -27.206068,22.48395 -27.097192,34.17832 l -1.288723,568.6275 c 2.142246,15.60941 8.695796,32.65251 21.82169,43.57692 z"
       id="path3351"
       inkscape:connector-curvature="0"
       sodipodi:nodetypes="cccccccccccc" />
    <path
       style="fill:none;fill-rule:evenodd;stroke:#000000;stroke-width:1px;stroke-linecap:butt;stroke-linejoin:miter;stroke-opacity:1"
       d="m 541.71329,154.68581 c -5.35172,-4.69914 -10.70344,-5.42935 -16.05516,-7.32361 l -365.04388,0 c -3.57738,0.51728 -7.73723,3.6456 -11.99206,8.01809 -3.88322,3.70095 -4.50004,9.07464 -5.05076,14.10859 l 0,200.90904 c -0.20771,2.44061 3.38326,6.27558 6.875,8.92857 3.07648,2.43406 4.97132,5.23003 10.80357,5.89286 l 358.39286,0 c 7.65103,-0.52347 15.27441,-1.61946 18.92857,-7.14286 5.42162,-6.51116 8.44076,-12.27304 8.57143,-20 l 0,-186.44104 c -0.22552,-8.13955 -2.9238,-12.39334 -5.42957,-16.94964 z"
       id="path3353"
       inkscape:connector-curvature="0"
       sodipodi:nodetypes="ccccccccccccc" />
  </g>
</svg>
